<svg id="Layer_1" data-name="Layer 1" xmlns="http://www.w3.org/2000/svg" viewBox="0 0 646 100"><defs><style>.cls-1{fill:#fff;}</style></defs><polygon class="cls-1" points="86.3 90.9 72.71 90.9 46.76 20.94 20.86 90.9 7.27 90.9 39.02 8.24 54.55 8.24 86.3 90.9"/><polygon class="cls-1" points="208.9 48.87 239.41 90.9 224.27 90.9 200.11 56.56 175.95 90.9 160.82 90.9 191.18 48.87 162.61 8.24 177.54 8.24 200.11 40.84 222.84 8.24 237.67 8.24 208.9 48.87"/><rect class="cls-1" x="319.04" y="8.24" width="12.9" height="82.66"/><path class="cls-1" d="M475.12,47c5.41-3.18,7.19-7.89,7.19-17.37,0-16.22-5.75-21.43-23.66-21.43H418.76V90.9h39.89c8.48,0,14.53-1.39,18.45-4.27,5.11-3.67,7.1-9.23,7.1-19.94C484.2,54.93,482.06,49.77,475.12,47ZM431.61,19.35H459c8.63,0,10.46,1.89,10.46,10.82,0,9.57-2.48,12.35-11.06,12.35H431.61Zm25.05,60.43H431.61V53.64h25.05c12.6,0,14.64,1.78,14.64,13s-2,13.14-14.64,13.14Z"/><path class="cls-1" d="M631.25,13.8C626.14,9.18,618,7.4,602.13,7.4c-14.73,0-22.77,1.53-27.83,5.3-5.66,4.17-8.09,11.17-8.09,23.52V62.91c0,22.63,7.69,28.78,35.77,28.78,14.93,0,22.72-1.49,27.83-5.31C635.47,82.21,638,75,638,62.91V36.22C638,25,635.92,18,631.25,13.8Zm-6.1,48.62c0,16.12-1.29,18.16-23,18.16s-23-2-23-18.16V36.67c0-16.13,1.29-18.16,23-18.16s23,2,23,18.16Z"/></svg>