<svg width="57" height="50" viewBox="0 0 57 50" fill="none" xmlns="http://www.w3.org/2000/svg">
<path fill-rule="evenodd" clip-rule="evenodd" d="M0.22205 28.157L27.9639 0.223582C28.26 -0.0745278 28.74 -0.0745273 29.0361 0.223583L56.7779 28.157C57.0294 28.4102 57.0673 28.7969 56.8917 29.0903C56.8306 29.1924 56.7113 29.2366 56.5928 29.2366H48.8992V49.2366C48.8992 49.6582 48.5598 50 48.1411 50H8.33958C7.92088 50 7.58145 49.6582 7.58145 49.2366V29.2366H0.407165C0.28865 29.2366 0.169378 29.1924 0.108301 29.0903C-0.067283 28.7969 -0.0293665 28.4102 0.22205 28.157ZM28.5246 28.435C30.4611 28.435 32.031 26.8543 32.031 24.9044C32.031 22.9546 30.4611 21.3739 28.5246 21.3739C26.5882 21.3739 25.0183 22.9546 25.0183 24.9044C25.0183 26.8543 26.5882 28.435 28.5246 28.435ZM25.0183 49.9998L25.0183 38.6011C25.0183 32.7805 32.031 32.58 32.031 38.6011L32.031 49.9998H25.0183Z" fill="#FFC137"/>
</svg>
